<svg width="30" height="30" viewBox="0 0 30 30" fill="none" xmlns="http://www.w3.org/2000/svg">
<path d="M25.6088 21.425L20.5275 16.805C20.2873 16.5867 19.9717 16.4703 19.6473 16.4803C19.3228 16.4903 19.015 16.626 18.7888 16.8587L15.7975 19.935C15.0775 19.7975 13.63 19.3462 12.14 17.86C10.65 16.3687 10.1988 14.9175 10.065 14.2025L13.1388 11.21C13.3718 10.9839 13.5077 10.676 13.5177 10.3515C13.5277 10.027 13.4111 9.71129 13.1925 9.47124L8.57375 4.39124C8.35505 4.15044 8.0511 4.00437 7.72644 3.98407C7.40178 3.96376 7.082 4.07082 6.835 4.28249L4.1225 6.60874C3.90639 6.82564 3.7774 7.11431 3.76 7.41999C3.74125 7.73249 3.38375 15.135 9.12375 20.8775C14.1313 25.8837 20.4038 26.25 22.1313 26.25C22.3838 26.25 22.5388 26.2425 22.58 26.24C22.8856 26.2229 23.1742 26.0933 23.39 25.8762L25.715 23.1625C25.9275 22.9163 26.0354 22.5968 26.0155 22.2721C25.9957 21.9475 25.8497 21.6435 25.6088 21.425V21.425Z" fill="white"/>
</svg>
