<svg width="30" height="30" viewBox="0 0 30 30" fill="none" xmlns="http://www.w3.org/2000/svg">
<path d="M25.2788 0C27.0366 0 28.4522 1.42125 28.5356 3.09563V30L25.1906 27.1584L23.355 25.4887L21.3478 23.7403L22.1831 26.4947H4.63875C2.88563 26.4947 1.46532 25.1662 1.46532 23.3991V3.10125C1.46532 1.42688 2.88657 0.005625 4.64438 0.005625H25.2694L25.2788 0ZM17.6316 7.10438H17.5922L17.3381 7.35375C19.9313 8.10562 21.1856 9.2775 21.1856 9.2775C19.5159 8.44219 18.0066 8.02219 16.5028 7.85156C15.4191 7.68562 14.3297 7.77375 13.4119 7.85156H13.1578C12.5719 7.85156 11.3222 8.10563 9.64688 8.77406C9.06563 9.02813 8.72907 9.19406 8.72907 9.19406C8.72907 9.19406 9.97875 7.93875 12.7425 7.27031L12.5719 7.10438C12.5719 7.10438 10.4822 7.02094 8.22657 8.69156C8.22657 8.69156 5.97094 12.6225 5.97094 17.4656C5.97094 17.4656 7.22063 19.6387 10.6491 19.7212C10.6491 19.7212 11.1516 19.0575 11.655 18.4716C9.73125 17.8856 8.97938 16.7137 8.97938 16.7137C8.97938 16.7137 9.15 16.7972 9.39938 16.9631H9.4725C9.51188 16.9631 9.53157 16.9828 9.55032 17.0025V17.0119C9.57 17.0316 9.58969 17.0456 9.62344 17.0456C10.0388 17.2162 10.4484 17.3822 10.7859 17.5481C11.3719 17.7975 12.1191 18.0506 13.0369 18.2175C14.1994 18.3881 15.5316 18.4669 17.0503 18.2175C17.7975 18.0469 18.5494 17.8856 19.3013 17.5481C19.785 17.2988 20.385 17.0503 21.0441 16.6256C21.0441 16.6256 20.2969 17.7975 18.2897 18.3834C18.7003 18.9647 19.2806 19.6331 19.2806 19.6331C22.7128 19.5553 24.0459 17.3822 24.1191 17.475C24.1191 12.6366 21.8484 8.70094 21.8484 8.70094C19.8075 7.18219 17.8931 7.12406 17.5566 7.12406L17.625 7.09969L17.6316 7.10438ZM17.8416 12.6225C18.7209 12.6225 19.4288 13.3697 19.4288 14.2875C19.4288 15.2156 18.7163 15.9619 17.8416 15.9619C16.9622 15.9619 16.2544 15.2147 16.2544 14.2969C16.2544 13.3687 16.9669 12.6225 17.8416 12.6225ZM12.1631 12.6225C13.0369 12.6225 13.7456 13.3697 13.7456 14.2875C13.7456 15.2156 13.0331 15.9619 12.1584 15.9619C11.2791 15.9619 10.5666 15.2147 10.5666 14.2969C10.5666 13.3687 11.2791 12.6225 12.1584 12.6225H12.1631Z" fill="white"/>
</svg>
