<svg height="70px" id="Layer_1" data-name="Layer 1" xmlns="http://www.w3.org/2000/svg" xmlns:xlink="http://www.w3.org/1999/xlink"
  viewBox="0 0 134.87 65.41">
  <defs>
    <style>
      .cls-1,
      .cls-11,
      .cls-2,
      .cls-3,
      .cls-9 {
        fill: none;
      }

      .cls-2 {
        clip-path: url(#clip-path);
      }

      .cls-3 {
        clip-path: url(#clip-path-2);
      }

      .cls-4,
      .cls-8 {
        fill: #fff;
      }

      .cls-5 {
        clip-path: url(#clip-path-4);
      }

      .cls-6 {
        clip-path: url(#clip-path-5);
      }

      .cls-7 {
        clip-path: url(#clip-path-7);
      }

      .cls-8,
      .cls-9 {
        stroke: #000;
      }

      .cls-10,
      .cls-11,
      .cls-8,
      .cls-9 {
        stroke-miterlimit: 10;
        stroke-width: 4px;
      }

      .cls-10 {
        fill: #464646;
      }

      .cls-10,
      .cls-11 {
        stroke: #fff;
      }
    </style>
    <clipPath id="clip-path">
      <rect class="cls-1" x="500.23" y="267.15" width="30.66" height="25.26"
        transform="translate(-64.56 366.61) rotate(-37)" />
    </clipPath>
    <clipPath id="clip-path-2">
      <rect class="cls-2" x="500.24" y="267.14" width="30.66" height="25.26"
        transform="translate(104.53 698.26) rotate(-74)" />
    </clipPath>
    <clipPath id="clip-path-4" transform="translate(-413.08 -247.62)">
      <ellipse class="cls-1" cx="515.5" cy="279.53" rx="15.34" ry="12.62"
        transform="translate(-64.42 366.53) rotate(-37)" />
    </clipPath>
    <clipPath id="clip-path-5" transform="translate(-413.08 -247.62)">
      <rect class="cls-1" x="493.67" y="259.54" width="43.79" height="40.21"
        transform="translate(-64.48 366.6) rotate(-37)" />
    </clipPath>
    <clipPath id="clip-path-7" transform="translate(-413.08 -247.62)">
      <rect class="cls-2" x="500.24" y="267.14" width="30.66" height="25.26"
        transform="translate(104.53 698.26) rotate(-74)" />
    </clipPath>
  </defs>
  <title>rs-school-js</title>
  <path class="cls-4"
    d="M482.59,279.56l6.41-.41a4.91,4.91,0,0,0,.85,2.39,3.58,3.58,0,0,0,3,1.32,3.22,3.22,0,0,0,2.22-.68,2,2,0,0,0,.78-1.56,1.93,1.93,0,0,0-.73-1.51,8.47,8.47,0,0,0-3.43-1.27c-2.95-.66-5.07-1.53-6.31-2.65a5.29,5.29,0,0,1-1.9-4.21,5.65,5.65,0,0,1,1-3.17,6.4,6.4,0,0,1,2.92-2.34,13.83,13.83,0,0,1,5.36-.85c2.78,0,4.9.51,6.36,1.56a6.64,6.64,0,0,1,2.61,4.94l-6.33.37a3,3,0,0,0-3.31-2.83,2.74,2.74,0,0,0-1.75.49,1.48,1.48,0,0,0-.58,1.22,1.18,1.18,0,0,0,.49.93,5.39,5.39,0,0,0,2.26.8,28.1,28.1,0,0,1,6.33,1.92,6.54,6.54,0,0,1,2.78,2.41,6,6,0,0,1,.85,3.24,6.89,6.89,0,0,1-1.17,3.87,7.39,7.39,0,0,1-3.24,2.68,13.09,13.09,0,0,1-5.24.93c-3.7,0-6.26-.71-7.7-2.14A8.36,8.36,0,0,1,482.59,279.56Zm-68,7.21V265h11.23a16.06,16.06,0,0,1,4.77.54,5,5,0,0,1,2.65,2,6.05,6.05,0,0,1,1,3.53,5.82,5.82,0,0,1-2.9,5.26,7.43,7.43,0,0,1-2.36.85,6.72,6.72,0,0,1,1.75.8,6.79,6.79,0,0,1,1.07,1.14,7.59,7.59,0,0,1,.95,1.36l3.26,6.31h-7.65l-3.6-6.7a5.29,5.29,0,0,0-1.22-1.68,2.89,2.89,0,0,0-1.66-.51h-0.58v8.84h-6.75v0Zm6.75-13h2.85a10.83,10.83,0,0,0,1.78-.29,1.71,1.71,0,0,0,1.1-.68,2.17,2.17,0,0,0-.24-2.87,4.12,4.12,0,0,0-2.51-.56h-3v4.41Zm-8.28,31.61,6.41-.41a4.91,4.91,0,0,0,.85,2.39,3.56,3.56,0,0,0,3,1.34,3.22,3.22,0,0,0,2.22-.68,2,2,0,0,0,.78-1.56,1.93,1.93,0,0,0-.73-1.51,8.47,8.47,0,0,0-3.46-1.27c-2.95-.66-5.07-1.53-6.31-2.65a5.29,5.29,0,0,1-1.9-4.21,5.65,5.65,0,0,1,1-3.17,6.4,6.4,0,0,1,2.92-2.34,13.83,13.83,0,0,1,5.36-.85c2.78,0,4.9.51,6.36,1.56A6.67,6.67,0,0,1,432.1,297l-6.33.37a3.4,3.4,0,0,0-1.07-2.14,3.2,3.2,0,0,0-2.24-.66,2.6,2.6,0,0,0-1.75.51,1.41,1.41,0,0,0-.58,1.22,1.18,1.18,0,0,0,.49.93,5.39,5.39,0,0,0,2.26.8,28.1,28.1,0,0,1,6.33,1.92,6.54,6.54,0,0,1,2.78,2.41,6.26,6.26,0,0,1,.88,3.21,7,7,0,0,1-1.17,3.85,7.39,7.39,0,0,1-3.24,2.68,13.09,13.09,0,0,1-5.24.93c-3.7,0-6.26-.71-7.7-2.14A8.57,8.57,0,0,1,413.08,305.43Z"
    transform="translate(-413.08 -247.62)" />
  <path class="cls-4"
    d="M445.48,303.72l5.89,1.78a11,11,0,0,1-1.88,4.14,8.16,8.16,0,0,1-3.17,2.51,12,12,0,0,1-4.82.85,14,14,0,0,1-5.8-1,9.18,9.18,0,0,1-3.9-3.63,12.23,12.23,0,0,1-1.63-6.65c0-3.6.95-6.38,2.87-8.3s4.63-2.9,8.13-2.9a11.18,11.18,0,0,1,6.48,1.66,10,10,0,0,1,3.51,5.11l-5.94,1.32a5.27,5.27,0,0,0-.66-1.46,3.86,3.86,0,0,0-1.39-1.19,4.24,4.24,0,0,0-5.33,1.44,7.83,7.83,0,0,0-.93,4.29q0,3.62,1.1,5a3.74,3.74,0,0,0,3.09,1.34,3.81,3.81,0,0,0,2.92-1.07A7,7,0,0,0,445.48,303.72Zm13.76-12.86H466v7.62h7.36v-7.62h6.77v21.77h-6.77v-8.82H466v8.82h-6.72V290.86Z"
    transform="translate(-413.08 -247.62)" />
  <path class="cls-4"
    d="M479.16,301.75c0-3.56,1-6.33,3-8.3s4.75-3,8.28-3,6.41,1,8.38,2.92,2.95,4.68,2.95,8.18a13.42,13.42,0,0,1-1.29,6.26,9.12,9.12,0,0,1-3.7,3.8,12.41,12.41,0,0,1-6.06,1.36,13.91,13.91,0,0,1-6.09-1.17,9.28,9.28,0,0,1-3.92-3.7A12.43,12.43,0,0,1,479.16,301.75Zm6.72,0c0,2.19.41,3.77,1.22,4.75a4.65,4.65,0,0,0,6.7,0c0.8-.95,1.19-2.63,1.19-5.07a6.66,6.66,0,0,0-1.24-4.48,4.22,4.22,0,0,0-3.36-1.41,4.12,4.12,0,0,0-3.26,1.44Q485.88,298.45,485.88,301.77Zm22.75,0c0-3.56,1-6.33,3-8.3s4.75-3,8.28-3,6.43,1,8.38,2.92,2.95,4.68,2.95,8.18a13.42,13.42,0,0,1-1.29,6.26,9.12,9.12,0,0,1-3.7,3.8,12.41,12.41,0,0,1-6.06,1.36,13.91,13.91,0,0,1-6.09-1.17,9.28,9.28,0,0,1-3.92-3.7A12.43,12.43,0,0,1,508.63,301.75Zm6.72,0c0,2.19.41,3.77,1.22,4.75a4.65,4.65,0,0,0,6.7,0c0.8-.95,1.19-2.63,1.19-5.07a6.66,6.66,0,0,0-1.24-4.48,4.22,4.22,0,0,0-3.36-1.41,4.09,4.09,0,0,0-3.26,1.44Q515.35,298.45,515.35,301.77Z"
    transform="translate(-413.08 -247.62)" />
  <path class="cls-4" d="M530.5,290.86h6.72v16.42h10.5v5.36H530.47V290.86h0Z" transform="translate(-413.08 -247.62)" />
  <ellipse class="cls-4" cx="515.5" cy="279.53" rx="15.34" ry="12.62"
    transform="translate(-477.51 118.92) rotate(-37)" />
  <g class="cls-5">
    <path class="cls-4" d="M486,276.77l35-26.35,24.2,32.11-35,26.35Z" transform="translate(-413.08 -247.62)" />
    <g class="cls-6">
      <ellipse class="cls-4" cx="515.5" cy="279.53" rx="15.34" ry="12.62"
        transform="translate(-477.51 118.92) rotate(-37)" />
      <g id="Layer_2" data-name="Layer 2">
        <g class="cls-5">
          <g id="Layer_1-2" data-name="Layer 1-2">
            <path class="cls-4" d="M495.72,278.91l24.49-18.45,15.2,20.17-24.49,18.45Z"
              transform="translate(-413.08 -247.62)" />
            <g class="cls-7">
              <ellipse class="cls-8" cx="515.5" cy="279.53" rx="15.34" ry="12.62"
                transform="translate(-477.51 118.92) rotate(-37)" />
              <path class="cls-9" d="M495.72,278.91l24.49-18.45,15.2,20.17-24.49,18.45Z"
                transform="translate(-413.08 -247.62)" />
              <ellipse class="cls-9" cx="515.5" cy="279.53" rx="15.34" ry="12.62"
                transform="translate(-477.51 118.92) rotate(-37)" />
              <path class="cls-4" d="M495.72,278.91l24.49-18.45,15.2,20.17-24.49,18.45Z"
                transform="translate(-413.08 -247.62)" />
              <ellipse class="cls-10" cx="515.5" cy="279.53" rx="15.34" ry="12.62"
                transform="translate(-477.51 118.92) rotate(-37)" />
              <path class="cls-9" d="M495.72,278.91l24.49-18.45,15.2,20.17-24.49,18.45Z"
                transform="translate(-413.08 -247.62)" />
              <path class="cls-9" d="M486,276.77l35-26.35,24.2,32.11-35,26.35Z"
                transform="translate(-413.08 -247.62)" />
            </g>
            <ellipse class="cls-11" cx="515.5" cy="279.53" rx="15.34" ry="12.62"
              transform="translate(-477.51 118.92) rotate(-37)" />
            <path class="cls-4"
              d="M508.65,277.93l2.44-1.7,3,4.26a8.47,8.47,0,0,1,1.19,2.22,2.84,2.84,0,0,1-.12,1.85,4,4,0,0,1-1.51,1.78,5.34,5.34,0,0,1-2.07,1,2.88,2.88,0,0,1-1.68-.24,4.07,4.07,0,0,1-1.49-1.24l2.09-1.95a2.93,2.93,0,0,0,.63.71,1,1,0,0,0,.58.19,0.77,0.77,0,0,0,.46-0.17,0.81,0.81,0,0,0,.39-0.73,2.45,2.45,0,0,0-.51-1.14Zm7.31,2.7,2.22-1.75a2.1,2.1,0,0,0,.9.63,1.56,1.56,0,0,0,1.41-.27,1.48,1.48,0,0,0,.63-0.8,0.85,0.85,0,0,0-.54-1.07,0.71,0.71,0,0,0-.22,0,3.9,3.9,0,0,0-1.56.41,6.46,6.46,0,0,1-2.95.63,2.35,2.35,0,0,1-1.75-1,2.63,2.63,0,0,1-.46-1.39,2.8,2.8,0,0,1,.46-1.58,6.13,6.13,0,0,1,1.7-1.66,4.94,4.94,0,0,1,2.7-1,2.94,2.94,0,0,1,2.19,1.12l-2.19,1.73a1.31,1.31,0,0,0-1.83-.24l-0.07.07a1.2,1.2,0,0,0-.51.63,0.63,0.63,0,0,0,.1.58,0.54,0.54,0,0,0,.41.22,2.34,2.34,0,0,0,1-.29,12.94,12.94,0,0,1,2.78-.9,2.8,2.8,0,0,1,1.61.17,2.51,2.51,0,0,1,1.12.95,3.15,3.15,0,0,1,.56,1.68,3.07,3.07,0,0,1-.49,1.78,6,6,0,0,1-1.66,1.66,4.83,4.83,0,0,1-3.31,1.17A3.57,3.57,0,0,1,516,280.63Z"
              transform="translate(-413.08 -247.62)" />
          </g>
        </g>
      </g>
    </g>
  </g>
</svg>